<svg width="20" height="20" viewBox="0 0 20 20" fill="none" xmlns="http://www.w3.org/2000/svg">
<g clip-path="url(#clip0_63_289)">
<path d="M13.5675 8.9324C13.6257 8.99045 13.6719 9.05942 13.7034 9.13535C13.7349 9.21129 13.7511 9.29269 13.7511 9.3749C13.7511 9.45711 13.7349 9.53851 13.7034 9.61444C13.6719 9.69037 13.6257 9.75934 13.5675 9.8174L9.8175 13.5674C9.75944 13.6256 9.69047 13.6718 9.61454 13.7033C9.53861 13.7348 9.45721 13.751 9.375 13.751C9.29279 13.751 9.21139 13.7348 9.13546 13.7033C9.05953 13.6718 8.99056 13.6256 8.9325 13.5674L7.0575 11.6924C6.99939 11.6343 6.95329 11.5653 6.92185 11.4894C6.8904 11.4135 6.87421 11.3321 6.87421 11.2499C6.87421 11.1677 6.8904 11.0863 6.92185 11.0104C6.95329 10.9345 6.99939 10.8655 7.0575 10.8074C7.17486 10.69 7.33403 10.6241 7.5 10.6241C7.58218 10.6241 7.66356 10.6403 7.73948 10.6717C7.8154 10.7032 7.88439 10.7493 7.9425 10.8074L9.375 12.2411L12.6825 8.9324C12.7406 8.87419 12.8095 8.82801 12.8855 8.79651C12.9614 8.765 13.0428 8.74878 13.125 8.74878C13.2072 8.74878 13.2886 8.765 13.3645 8.79651C13.4405 8.82801 13.5094 8.87419 13.5675 8.9324Z" fill="#21272A"/>
<path d="M4.375 0C4.54076 0 4.69973 0.065848 4.81694 0.183058C4.93415 0.300269 5 0.45924 5 0.625V1.25H15V0.625C15 0.45924 15.0658 0.300269 15.1831 0.183058C15.3003 0.065848 15.4592 0 15.625 0C15.7908 0 15.9497 0.065848 16.0669 0.183058C16.1842 0.300269 16.25 0.45924 16.25 0.625V1.25H17.5C18.163 1.25 18.7989 1.51339 19.2678 1.98223C19.7366 2.45107 20 3.08696 20 3.75V17.5C20 18.163 19.7366 18.7989 19.2678 19.2678C18.7989 19.7366 18.163 20 17.5 20H2.5C1.83696 20 1.20107 19.7366 0.732233 19.2678C0.263392 18.7989 0 18.163 0 17.5V3.75C0 3.08696 0.263392 2.45107 0.732233 1.98223C1.20107 1.51339 1.83696 1.25 2.5 1.25H3.75V0.625C3.75 0.45924 3.81585 0.300269 3.93306 0.183058C4.05027 0.065848 4.20924 0 4.375 0V0ZM1.25 5V17.5C1.25 17.8315 1.3817 18.1495 1.61612 18.3839C1.85054 18.6183 2.16848 18.75 2.5 18.75H17.5C17.8315 18.75 18.1495 18.6183 18.3839 18.3839C18.6183 18.1495 18.75 17.8315 18.75 17.5V5H1.25Z" fill="#21272A"/>
</g>
<defs>
<clipPath id="clip0_63_289">
<rect width="20" height="20" fill="white"/>
</clipPath>
</defs>
</svg>
