<svg width="64" height="64" viewBox="0 0 64 64" fill="none" xmlns="http://www.w3.org/2000/svg">
<path fill-rule="evenodd" clip-rule="evenodd" d="M12 12C9.79086 12 8 13.7909 8 16V52C8 54.2091 9.79086 56 12 56H52C54.2091 56 56 54.2091 56 52V16C56 13.7909 54.2091 12 52 12H12ZM4 16C4 11.5817 7.58172 8 12 8H52C56.4183 8 60 11.5817 60 16V52C60 56.4183 56.4183 60 52 60H12C7.58172 60 4 56.4183 4 52V16Z" fill="#21272A"/>
<path d="M37 32C38.6569 32 40 30.6569 40 29C40 27.3431 38.6569 26 37 26C35.3431 26 34 27.3431 34 29C34 30.6569 35.3431 32 37 32Z" fill="#21272A"/>
<path d="M47 32C48.6569 32 50 30.6569 50 29C50 27.3431 48.6569 26 47 26C45.3431 26 44 27.3431 44 29C44 30.6569 45.3431 32 47 32Z" fill="#21272A"/>
<path d="M37 42C38.6569 42 40 40.6569 40 39C40 37.3431 38.6569 36 37 36C35.3431 36 34 37.3431 34 39C34 40.6569 35.3431 42 37 42Z" fill="#21272A"/>
<path d="M47 42C48.6569 42 50 40.6569 50 39C50 37.3431 48.6569 36 47 36C45.3431 36 44 37.3431 44 39C44 40.6569 45.3431 42 47 42Z" fill="#21272A"/>
<path d="M17 42C18.6569 42 20 40.6569 20 39C20 37.3431 18.6569 36 17 36C15.3431 36 14 37.3431 14 39C14 40.6569 15.3431 42 17 42Z" fill="#21272A"/>
<path d="M27 42C28.6569 42 30 40.6569 30 39C30 37.3431 28.6569 36 27 36C25.3431 36 24 37.3431 24 39C24 40.6569 25.3431 42 27 42Z" fill="#21272A"/>
<path d="M17 52C18.6569 52 20 50.6569 20 49C20 47.3431 18.6569 46 17 46C15.3431 46 14 47.3431 14 49C14 50.6569 15.3431 52 17 52Z" fill="#21272A"/>
<path d="M27 52C28.6569 52 30 50.6569 30 49C30 47.3431 28.6569 46 27 46C25.3431 46 24 47.3431 24 49C24 50.6569 25.3431 52 27 52Z" fill="#21272A"/>
<path d="M37 52C38.6569 52 40 50.6569 40 49C40 47.3431 38.6569 46 37 46C35.3431 46 34 47.3431 34 49C34 50.6569 35.3431 52 37 52Z" fill="#21272A"/>
<path fill-rule="evenodd" clip-rule="evenodd" d="M16 4C17.1046 4 18 4.89543 18 6V10C18 11.1046 17.1046 12 16 12C14.8954 12 14 11.1046 14 10V6C14 4.89543 14.8954 4 16 4Z" fill="#21272A"/>
<path fill-rule="evenodd" clip-rule="evenodd" d="M48 4C49.1046 4 50 4.89543 50 6V10C50 11.1046 49.1046 12 48 12C46.8954 12 46 11.1046 46 10V6C46 4.89543 46.8954 4 48 4Z" fill="#21272A"/>
<path fill-rule="evenodd" clip-rule="evenodd" d="M6 18H58V22H6V18Z" fill="#21272A"/>
</svg>
