<svg width="20" height="20" viewBox="0 0 20 20" fill="none" xmlns="http://www.w3.org/2000/svg">
<g clip-path="url(#clip0_63_292)">
<path d="M7.6825 8.9324C7.74056 8.87419 7.80953 8.82801 7.88546 8.79651C7.96139 8.765 8.04279 8.74878 8.125 8.74878C8.20721 8.74878 8.28861 8.765 8.36454 8.79651C8.44047 8.82801 8.50944 8.87419 8.5675 8.9324L10 10.3661L11.4325 8.9324C11.5499 8.81504 11.709 8.74911 11.875 8.74911C12.041 8.74911 12.2001 8.81504 12.3175 8.9324C12.4349 9.04975 12.5008 9.20893 12.5008 9.3749C12.5008 9.54087 12.4349 9.70004 12.3175 9.8174L10.8838 11.2499L12.3175 12.6824C12.4349 12.7998 12.5008 12.9589 12.5008 13.1249C12.5008 13.2909 12.4349 13.45 12.3175 13.5674C12.2001 13.6848 12.041 13.7507 11.875 13.7507C11.709 13.7507 11.5499 13.6848 11.4325 13.5674L10 12.1336L8.5675 13.5674C8.45014 13.6848 8.29097 13.7507 8.125 13.7507C7.95903 13.7507 7.79986 13.6848 7.6825 13.5674C7.56514 13.45 7.49921 13.2909 7.49921 13.1249C7.49921 12.9589 7.56514 12.7998 7.6825 12.6824L9.11625 11.2499L7.6825 9.8174C7.6243 9.75934 7.57812 9.69037 7.54661 9.61444C7.5151 9.53851 7.49888 9.45711 7.49888 9.3749C7.49888 9.29269 7.5151 9.21129 7.54661 9.13535C7.57812 9.05942 7.6243 8.99045 7.6825 8.9324Z" fill="#21272A"/>
<path d="M4.375 0C4.54076 0 4.69973 0.065848 4.81694 0.183058C4.93415 0.300269 5 0.45924 5 0.625V1.25H15V0.625C15 0.45924 15.0658 0.300269 15.1831 0.183058C15.3003 0.065848 15.4592 0 15.625 0C15.7908 0 15.9497 0.065848 16.0669 0.183058C16.1842 0.300269 16.25 0.45924 16.25 0.625V1.25H17.5C18.163 1.25 18.7989 1.51339 19.2678 1.98223C19.7366 2.45107 20 3.08696 20 3.75V17.5C20 18.163 19.7366 18.7989 19.2678 19.2678C18.7989 19.7366 18.163 20 17.5 20H2.5C1.83696 20 1.20107 19.7366 0.732233 19.2678C0.263392 18.7989 0 18.163 0 17.5V3.75C0 3.08696 0.263392 2.45107 0.732233 1.98223C1.20107 1.51339 1.83696 1.25 2.5 1.25H3.75V0.625C3.75 0.45924 3.81585 0.300269 3.93306 0.183058C4.05027 0.065848 4.20924 0 4.375 0V0ZM1.25 5V17.5C1.25 17.8315 1.3817 18.1495 1.61612 18.3839C1.85054 18.6183 2.16848 18.75 2.5 18.75H17.5C17.8315 18.75 18.1495 18.6183 18.3839 18.3839C18.6183 18.1495 18.75 17.8315 18.75 17.5V5H1.25Z" fill="#21272A"/>
</g>
<defs>
<clipPath id="clip0_63_292">
<rect width="20" height="20" fill="white"/>
</clipPath>
</defs>
</svg>
