<svg width="300" height="175" viewBox="0 0 300 175" fill="none" xmlns="http://www.w3.org/2000/svg">
<rect x="1" y="1" width="298" height="173" rx="7" fill="#EFEFF0"/>
<mask id="mask0_87_6850" style="mask-type:luminance" maskUnits="userSpaceOnUse" x="140" y="78" width="20" height="20">
<path fill-rule="evenodd" clip-rule="evenodd" d="M140 78.0002H159.96V97.95H140V78.0002Z" fill="white"/>
</mask>
<g mask="url(#mask0_87_6850)">
<path fill-rule="evenodd" clip-rule="evenodd" d="M145.65 79.5C143.129 79.5 141.5 81.227 141.5 83.899V92.051C141.5 94.724 143.129 96.45 145.65 96.45H154.3C156.827 96.45 158.46 94.724 158.46 92.051V83.899C158.46 81.227 156.827 79.5 154.3 79.5H145.65ZM154.3 97.95H145.65C142.27 97.95 140 95.579 140 92.051V83.899C140 80.371 142.27 78 145.65 78H154.3C157.685 78 159.96 80.371 159.96 83.899V92.051C159.96 95.579 157.685 97.95 154.3 97.95Z" fill="#61646B"/>
</g>
<path fill-rule="evenodd" clip-rule="evenodd" d="M143.281 93.1804C143.095 93.1804 142.91 93.1124 142.765 92.9744C142.464 92.6904 142.452 92.2144 142.737 91.9154L144.265 90.3024C145.074 89.4434 146.439 89.4014 147.302 90.2114L148.26 91.1834C148.527 91.4534 148.961 91.4584 149.229 91.1944C149.33 91.0754 151.508 88.4304 151.508 88.4304C151.922 87.9284 152.506 87.6184 153.155 87.5544C153.805 87.4974 154.436 87.6864 154.939 88.0994C154.982 88.1344 155.021 88.1684 157.217 90.4234C157.506 90.7194 157.501 91.1944 157.204 91.4834C156.908 91.7744 156.432 91.7654 156.143 91.4694C156.143 91.4694 154.094 89.3664 153.948 89.2244C153.793 89.0974 153.544 89.0234 153.299 89.0474C153.05 89.0724 152.826 89.1914 152.667 89.3844C150.343 92.2034 150.315 92.2304 150.277 92.2674C149.419 93.1094 148.034 93.0954 147.191 92.2354C147.191 92.2354 146.261 91.2914 146.245 91.2724C146.014 91.0584 145.602 91.0724 145.355 91.3334L143.825 92.9464C143.677 93.1024 143.479 93.1804 143.281 93.1804Z" fill="#61646B"/>
<path fill-rule="evenodd" clip-rule="evenodd" d="M146.558 84.1289C146.005 84.1289 145.555 84.5789 145.555 85.1329C145.555 85.6869 146.005 86.1379 146.559 86.1379C147.113 86.1379 147.564 85.6869 147.564 85.1329C147.564 84.5799 147.113 84.1299 146.558 84.1289ZM146.559 87.6379C145.178 87.6379 144.055 86.5139 144.055 85.1329C144.055 83.7519 145.178 82.6289 146.559 82.6289C147.941 82.6299 149.064 83.7539 149.064 85.1329C149.064 86.5139 147.94 87.6379 146.559 87.6379Z" fill="#61646B"/>
<rect x="1" y="1" width="298" height="173" rx="7" stroke="#AFB1B6" stroke-width="2"/>
</svg>
