<?xml version="1.0" encoding="UTF-8"?>
<svg id="Layer_1" data-name="Layer 1" xmlns="http://www.w3.org/2000/svg" viewBox="0 0 252.57 252.57">
  <defs>
    <style>
      .cls-1 {
        fill: none;
        stroke: #fff;
        stroke-miterlimit: 10;
        stroke-width: 3px;
      }

      .cls-2 {
        fill: #fff;
      }

      .cls-2, .cls-3, .cls-4 {
        stroke-width: 0px;
      }

      .cls-3 {
        fill: #e89e0a;
      }

      .cls-4 {
        fill: #ffb100;
      }
    </style>
  </defs>
  <g>
    <path class="cls-4" d="m232.75,194.21c12.54-19.61,19.81-42.92,19.81-67.93C252.57,56.54,196.03,0,126.28,0S0,56.54,0,126.28s56.54,126.28,126.28,126.28c12.74,0,25.04-1.89,36.63-5.4"/>
    <path class="cls-3" d="m232.75,194.21c-16.05,25.1-40.72,44.14-69.84,52.95"/>
    <polyline class="cls-3" points="232.75 194.21 194.93 143.24 124.55 195.46 162.91 247.16"/>
  </g>
  <g>
    <g>
      <g>
        <line class="cls-1" x1="70.17" y1="101.04" x2="121.57" y2="62.9"/>
        <polyline class="cls-1" points="186.85 139.71 126.92 58.93 121.57 62.9"/>
        <polyline class="cls-1" points="124.76 185.78 64.82 105 70.17 101.04"/>
        <path class="cls-1" d="m186.85,139.71c2.9-1.12,5.95-.64,7.48,1.43,1.96,2.64.75,6.87-2.68,9.42l-57.91,42.96c-3.43,2.54-7.83,2.47-9.79-.17-1.54-2.07-1.11-5.13.8-7.58"/>
        <path class="cls-1" d="m70.17,101.04l55.96,75.42c2.19,2.96,6.37,3.58,9.33,1.38l40.69-30.19c2.96-2.19,3.58-6.37,1.38-9.33l-55.96-75.42"/>
        <line class="cls-1" x1="131.58" y1="76.38" x2="80.17" y2="114.52"/>
      </g>
      <g>
        <path class="cls-1" d="m109.85,165.69l4.34,5.85-11.1,8.24c-3.38,2.51-8.88.81-12.29-3.78l-24.95-33.62c-3.41-4.59-3.43-10.35-.06-12.85l11.1-8.24,4.34,5.85"/>
        <path class="cls-1" d="m109.85,165.69l-8.39,6.22c-1.2.89-3.36.03-4.81-1.93l-23.34-31.45c-1.45-1.96-1.66-4.27-.46-5.16l8.39-6.22"/>
      </g>
      <g>
        <path class="cls-1" d="m106.12,60.77c-4.74-4.55-14.95-3.27-23.7,3.23s-12.91,15.83-9.98,21.7"/>
        <path class="cls-1" d="m106.12,60.77c.86-1.14,1.9-2.2,3.13-3.11,5.96-4.42,13.87-3.85,17.67,1.28"/>
        <line class="cls-1" x1="105.35" y1="74.93" x2="86.39" y2="89"/>
        <line class="cls-1" x1="86.39" y1="89" x2="84.49" y2="90.41"/>
        <line class="cls-1" x1="105.35" y1="74.93" x2="107.11" y2="73.63"/>
        <line class="cls-1" x1="64.82" y1="105" x2="84.49" y2="90.41"/>
        <line class="cls-1" x1="126.92" y1="58.93" x2="107.11" y2="73.63"/>
        <path class="cls-1" d="m72.44,85.69c-1.28.49-2.54,1.16-3.72,2.03-5.96,4.42-7.7,12.16-3.9,17.28"/>
      </g>
    </g>
    <path class="cls-2" d="m128.07,91.32c6.26,8.43,12.51,16.86,18.77,25.3.88,1.19,1.77,2.38,2.65,3.57,1.14,1.53,3.74.04,2.59-1.51-6.26-8.43-12.51-16.86-18.77-25.3-.88-1.19-1.77-2.38-2.65-3.57-1.14-1.53-3.74-.04-2.59,1.51h0Z"/>
    <path class="cls-2" d="m122.69,95.32c3.13,4.22,6.26,8.44,9.39,12.66.44.59.88,1.19,1.32,1.78.48.65,1.3.98,2.05.54.64-.37,1.02-1.4.54-2.05-3.13-4.22-6.26-8.44-9.39-12.66l-1.32-1.78c-.48-.65-1.3-.98-2.05-.54-.64.37-1.02,1.4-.54,2.05h0Z"/>
  </g>
</svg>