<svg width="64" height="64" viewBox="0 0 64 64" fill="none" xmlns="http://www.w3.org/2000/svg">
<path d="M42.0001 32C39.4251 32 36.9501 30.85 35.0001 28.775C33.1126 26.75 31.9501 24.0375 31.7501 21.15C31.5376 18.075 32.4751 15.2375 34.3876 13.175C36.3001 11.125 39.0001 10 42.0001 10C44.9751 10 47.6751 11.1375 49.5876 13.1875C51.5251 15.2625 52.4626 18.0875 52.2376 21.1375C52.0251 24.025 50.8751 26.7375 48.9876 28.7625C47.0501 30.85 44.5751 32 42.0001 32ZM42.0001 14C40.1251 14 38.4626 14.675 37.3251 15.9C36.1501 17.1625 35.6126 18.875 35.7501 20.8625C35.8876 22.8375 36.6626 24.6875 37.9376 26.05C39.1126 27.3125 40.5626 28 42.0001 28C43.4501 28 44.8876 27.3 46.0626 26.05C47.3376 24.6875 48.1126 22.85 48.2501 20.8625C48.3876 18.9375 47.8251 17.175 46.6501 15.925C45.5126 14.675 43.8501 14 42.0001 14Z" fill="#21272A"/>
<path d="M58.4751 53.9998H25.5251C24.4376 53.9998 23.4376 53.5123 22.7751 52.6623C22.0876 51.7748 21.8376 50.5748 22.1126 49.4373C23.1626 45.2123 25.7751 41.7123 29.6501 39.2998C33.0876 37.1623 37.4751 35.9873 41.9876 35.9873C46.5876 35.9873 50.8626 37.1123 54.3251 39.2498C58.2126 41.6373 60.8251 45.1623 61.8751 49.4373C62.1501 50.5748 61.9001 51.7748 61.2126 52.6623C60.5626 53.5123 59.5626 53.9998 58.4751 53.9998ZM26.1126 49.9998H57.9001C55.8376 42.6248 48.1001 39.9998 42.0001 39.9998C35.9251 39.9998 28.2001 42.6248 26.1126 49.9998Z" fill="#21272A"/>
<path d="M18.3751 32.5002C13.9751 32.5002 10.1126 28.4127 9.75011 23.3877C9.56261 20.8127 10.3626 18.4377 11.9876 16.6877C13.6001 14.9627 15.8626 14.0127 18.3626 14.0127C20.8501 14.0127 23.1126 14.9752 24.7251 16.7127C26.3626 18.4752 27.1626 20.8502 26.9751 23.4002C26.6376 28.4127 22.7626 32.5002 18.3751 32.5002ZM18.3751 18.0002C17.0001 18.0002 15.7751 18.5002 14.9251 19.4127C14.0501 20.3502 13.6376 21.6252 13.7501 23.1002C13.9626 26.0252 16.0751 28.5002 18.3751 28.5002C20.6751 28.5002 22.8001 26.0252 23.0001 23.1002C23.1001 21.6627 22.6751 20.3627 21.8126 19.4252C20.9626 18.5002 19.7376 18.0002 18.3751 18.0002Z" fill="#21272A"/>
<path d="M19.2501 50.0002H5.2126C4.2251 50.0002 3.3126 49.5502 2.7001 48.7877C2.0751 47.9877 1.8501 46.8877 2.1001 45.8627C2.9626 42.3752 5.1126 39.5002 8.3001 37.5252C11.1126 35.7877 14.6876 34.8252 18.3626 34.8252C21.5126 34.8252 24.2001 35.3502 26.5751 36.4377C27.5751 36.9002 28.0251 38.0877 27.5626 39.0877C27.1001 40.0877 25.9126 40.5377 24.9126 40.0752C23.0751 39.2377 20.9376 38.8252 18.3751 38.8252C13.8126 38.8252 8.0501 40.7252 6.2251 46.0127H19.2501C20.3501 46.0127 21.2501 46.9127 21.2501 48.0127C21.2501 49.1127 20.3501 50.0002 19.2501 50.0002Z" fill="#21272A"/>
</svg>
