<svg width="64" height="64" viewBox="0 0 64 64" fill="none" xmlns="http://www.w3.org/2000/svg">
<path fill-rule="evenodd" clip-rule="evenodd" d="M27.7167 12.4227C31.9843 11.5739 36.4078 12.0095 40.4278 13.6747C44.4477 15.3398 47.8837 18.1596 50.3011 21.7775C52.7185 25.3953 54.0087 29.6488 54.0087 34C54.0087 39.8348 51.6909 45.4306 47.5651 49.5564C43.4393 53.6822 37.8435 56 32.0087 56C27.6575 56 23.4041 54.7097 19.7862 52.2923C16.1683 49.875 13.3485 46.439 11.6834 42.419C10.0183 38.3991 9.58259 33.9756 10.4315 29.708C11.2803 25.4404 13.3756 21.5204 16.4524 18.4437C19.5291 15.3669 23.4492 13.2716 27.7167 12.4227ZM38.897 17.3702C35.608 16.0078 31.9888 15.6513 28.4971 16.3459C25.0055 17.0404 21.7982 18.7547 19.2808 21.2721C16.7635 23.7894 15.0491 26.9967 14.3546 30.4884C13.6601 33.98 14.0165 37.5992 15.3789 40.8883C16.7413 44.1774 19.0484 46.9886 22.0085 48.9665C24.9686 50.9443 28.4487 52 32.0087 52C36.7826 52 41.361 50.1036 44.7367 46.7279C48.1123 43.3523 50.0087 38.7739 50.0087 34C50.0087 30.4399 48.9531 26.9598 46.9752 23.9997C44.9973 21.0397 42.1861 18.7326 38.897 17.3702Z" fill="#21272A"/>
<path fill-rule="evenodd" clip-rule="evenodd" d="M13.9761 8L14.0096 8.00016C15.8644 8.00903 17.656 8.67581 19.0653 9.8818L17.765 11.4014L19.0756 9.89063C19.3513 10.1299 19.5749 10.4233 19.7322 10.7528C19.8888 11.0806 19.9764 11.437 19.9898 11.7999C20.0038 12.1643 19.943 12.5278 19.8112 12.8679C19.6788 13.2097 19.4774 13.5207 19.2197 13.7814L19.2094 13.7917L11.6683 21.1988C11.4732 21.417 11.2395 21.5981 10.9783 21.7328C10.6506 21.9019 10.2883 21.9932 9.91953 21.9998L9.90164 22.0001H9.69146L9.60945 21.9934C9.25166 21.9639 8.90402 21.8597 8.58896 21.6876C8.28043 21.5191 8.00986 21.289 7.79393 21.0118L7.78675 21.0027C7.41444 20.5323 6.93559 19.9272 6.58395 19.1717C6.20499 18.3575 6.00906 17.4601 6.00875 16.3777C5.99884 12.056 9.17182 8.2765 13.5309 8.01376L13.5624 8.01186L13.9761 8ZM15.1398 12.1822C14.7803 12.0673 14.4033 12.0052 14.0204 12.0004L13.7436 12.0083C11.728 12.1455 10.0025 13.9539 10.0087 16.37L10.0088 16.3725V16.3751C10.0088 16.7067 10.0413 16.9512 10.0895 17.1428L15.1398 12.1822Z" fill="#21272A"/>
<path fill-rule="evenodd" clip-rule="evenodd" d="M50.0239 8L50.4376 8.01186L50.4691 8.01376C54.8282 8.2765 58.0012 12.056 57.9912 16.3777C57.9909 17.4602 57.795 18.3575 57.416 19.1717C57.0644 19.9272 56.5855 20.5323 56.2132 21.0027L56.2048 21.0133C55.988 21.2909 55.7163 21.521 55.4067 21.6892C55.0917 21.8603 54.7443 21.9636 54.3869 21.9924L54.3067 21.9989H54.0983L54.0804 21.9986C53.7117 21.992 53.3494 21.9006 53.0216 21.7316C52.7605 21.5969 52.5268 21.4157 52.3318 21.1977L44.7906 13.7918L44.7803 13.7814C44.5226 13.5207 44.3212 13.2097 44.1887 12.8679C44.0569 12.5278 43.9962 12.1643 44.0101 11.7998C44.0236 11.4369 44.1112 11.0805 44.2678 10.7528C44.4251 10.4234 44.6486 10.1299 44.9244 9.89063L46.235 11.4014L44.9346 9.8818C46.344 8.67581 48.1355 8.00903 49.9904 8.00016L50.0239 8ZM48.8604 12.1822L53.9107 17.1419C53.9588 16.9505 53.9912 16.7062 53.9912 16.3751V16.3725L53.9912 16.37C53.9975 13.9539 52.2719 12.1455 50.2564 12.0083L49.9796 12.0004C49.5968 12.0052 49.2198 12.0673 48.8604 12.1822Z" fill="#21272A"/>
<path fill-rule="evenodd" clip-rule="evenodd" d="M32.0087 18C33.1133 18 34.0087 18.8954 34.0087 20V34C34.0087 35.1046 33.1133 36 32.0087 36H22.0087C20.9042 36 20.0087 35.1046 20.0087 34C20.0087 32.8954 20.9042 32 22.0087 32H30.0087V20C30.0087 18.8954 30.9042 18 32.0087 18Z" fill="#21272A"/>
<path fill-rule="evenodd" clip-rule="evenodd" d="M45.5945 47.5858C46.3756 46.8047 47.6419 46.8047 48.4229 47.5858L53.4229 52.5858C54.204 53.3668 54.204 54.6332 53.4229 55.4142C52.6419 56.1953 51.3756 56.1953 50.5945 55.4142L45.5945 50.4142C44.8135 49.6332 44.8135 48.3668 45.5945 47.5858Z" fill="#21272A"/>
<path fill-rule="evenodd" clip-rule="evenodd" d="M18.4229 47.5858C19.204 48.3668 19.204 49.6332 18.4229 50.4142L13.4229 55.4142C12.6419 56.1953 11.3756 56.1953 10.5945 55.4142C9.81347 54.6332 9.81347 53.3668 10.5945 52.5858L15.5945 47.5858C16.3756 46.8047 17.6419 46.8047 18.4229 47.5858Z" fill="#21272A"/>
</svg>
